<?xml version="1.0" encoding="UTF-8" standalone="no"?>
<svg width="30px" height="40px" viewBox="0 0 30 40" version="1.1" xmlns="http://www.w3.org/2000/svg" xmlns:xlink="http://www.w3.org/1999/xlink" xmlns:sketch="http://www.bohemiancoding.com/sketch/ns">
    <!-- Generator: Sketch 3.3.3 (12072) - http://www.bohemiancoding.com/sketch -->
    <title>Shape 2</title>
    <desc>Created with Sketch.</desc>
    <defs></defs>
    <g id="Page-1" stroke="none" stroke-width="1" fill="none" fill-rule="evenodd" sketch:type="MSPage">
        <g id="CyberBet_landing-2" sketch:type="MSArtboardGroup" transform="translate(-626.000000, -1681.000000)" fill="#754FBA">
            <g id="Oval-111-+-Shape-2" sketch:type="MSLayerGroup" transform="translate(598.000000, 1659.000000)">
                <path d="M42.3759049,22.0880952 C45.8614153,21.9142857 49.3983063,23.1833333 51.9912297,25.5095238 C53.852877,27.1821429 55.1744316,29.4345238 55.7288631,31.8714286 C56.2378886,34.1714286 56.1900928,36.6380952 55.3249884,38.8511905 C54.2292691,41.7297619 52.0067633,43.9845238 49.7292923,45.9809524 C46.2664849,48.8547619 42.6698492,51.5654762 39.1831439,54.4107143 C45.2269258,54.4202381 51.2707077,54.4178571 57.3144896,54.4119048 C57.3407773,56.6238095 57.3192691,58.8357143 57.3252436,61.047619 L28.5915893,61.047619 C28.5880046,59.222619 28.5975638,57.3988095 28.5868097,55.575 C33.6292691,51.25 38.6956265,46.9535714 43.7428654,42.6345238 C45.0608353,41.4964286 46.38,40.3333333 47.4279234,38.9345238 C48.2476218,37.8630952 48.8343155,36.5785714 48.9179582,35.222619 C49.0625406,33.5583333 48.4483643,31.8595238 47.3108237,30.6392857 C45.5949536,28.7178571 42.7905336,28.1166667 40.3218794,28.5833333 C37.797065,29.0095238 35.5960673,30.5047619 33.8061137,32.272619 C33.3042575,32.7190476 32.9147216,33.2761905 32.4080858,33.7166667 C31.0889211,32.0047619 29.7661717,30.2928571 28.4135499,28.6083333 C31.4951856,25.322619 35.6139907,22.9130952 40.1020186,22.222619 C40.8488283,22.0642857 41.6159513,22.0761905 42.3759049,22.0880952 Z" id="Shape-2" sketch:type="MSShapeGroup"></path>
            </g>
        </g>
    </g>
</svg>