<?xml version="1.0" encoding="UTF-8" standalone="no"?>
<svg width="30px" height="40px" viewBox="0 0 30 40" version="1.1" xmlns="http://www.w3.org/2000/svg" xmlns:xlink="http://www.w3.org/1999/xlink" xmlns:sketch="http://www.bohemiancoding.com/sketch/ns">
    <!-- Generator: Sketch 3.3.3 (12072) - http://www.bohemiancoding.com/sketch -->
    <title>Shape 2</title>
    <desc>Created with Sketch.</desc>
    <defs></defs>
    <g id="Page-1" stroke="none" stroke-width="1" fill="none" fill-rule="evenodd" sketch:type="MSPage">
        <g id="CyberBet_landing-2" sketch:type="MSArtboardGroup" transform="translate(-1024.000000, -1682.000000)" fill="#754FBA">
            <g id="Oval-111-+-Shape-3" sketch:type="MSLayerGroup" transform="translate(981.000000, 1636.000000)">
                <path d="M70.070116,46.9392857 C70.0629466,48.247619 70.0892343,49.5571429 70.0581671,50.8642857 C67.0553944,53.9297619 63.9665893,56.9166667 60.9566473,59.977381 C63.0644432,59.9416667 65.1973318,60.4214286 67.0458353,61.4416667 C69.0102436,62.5154762 70.6185731,64.2178571 71.5816589,66.2333333 C72.5519142,68.2178571 72.9235267,70.4642857 72.782529,72.6595238 C72.6379466,76.3095238 70.9459745,79.872619 68.1750116,82.2714286 C65.3311601,84.7630952 61.4895708,86.0702381 57.7125058,85.9130952 C55.3764849,85.9404762 53.0356845,85.5404762 50.843051,84.7440476 C48.8057541,83.9642857 46.9190139,82.8035714 45.3202436,81.3238095 C44.6654408,80.7654762 44.1014501,80.1154762 43.5063921,79.497619 C45.0012065,78.0202381 46.4984107,76.5452381 47.9693271,75.0428571 C49.2251624,76.3702381 50.6112413,77.6095238 52.2518329,78.4464286 C53.6761485,79.1857143 55.2558005,79.6595238 56.8641299,79.7309524 C58.5106961,79.9011905 60.2134223,79.6214286 61.704652,78.8988095 C63.2843039,78.1488095 64.5915197,76.8333333 65.2953132,75.2345238 C65.9082947,73.8309524 66.1197912,72.2547619 65.915464,70.7392857 C65.6227146,68.6404762 64.2724826,66.7428571 62.4168097,65.722619 C60.765464,64.7964286 58.7604292,64.5333333 56.92029,64.9714286 C55.7660209,65.2309524 54.734826,65.8583333 53.8255104,66.5940476 C52.6461485,65.4119048 51.4261601,64.2690476 50.2264849,63.1083333 C53.5172274,59.8130952 56.8318677,56.5404762 60.1166357,53.2404762 C55.1159977,53.1880952 50.1129698,53.2404762 45.1123318,53.2142857 C45.1374246,51.122619 45.1147216,49.0297619 45.1242807,46.9369048 C53.4395592,46.9345238 61.7548376,46.9309524 70.070116,46.9392857 Z" id="Shape-2" sketch:type="MSShapeGroup"></path>
            </g>
        </g>
    </g>
</svg>