<?xml version="1.0" encoding="UTF-8" standalone="no"?>
<svg width="52px" height="53px" viewBox="0 0 52 53" version="1.1" xmlns="http://www.w3.org/2000/svg" xmlns:xlink="http://www.w3.org/1999/xlink" xmlns:sketch="http://www.bohemiancoding.com/sketch/ns">
    <!-- Generator: Sketch 3.3.3 (12072) - http://www.bohemiancoding.com/sketch -->
    <title>logo</title>
    <desc>Created with Sketch.</desc>
    <defs></defs>
    <g id="Page-1" stroke="none" stroke-width="1" fill="none" fill-rule="evenodd" sketch:type="MSPage">
        <g id="Leagues" sketch:type="MSArtboardGroup" transform="translate(-94.000000, -20.000000)">
            <g id="logo" sketch:type="MSLayerGroup" transform="translate(94.000000, 20.000000)">
                <path d="M24.3186742,45.167932 C34.0165599,45.167932 41.8782496,37.2960982 41.8782496,27.5856991 C41.8782496,17.8753 34.0165599,10.0034662 24.3186742,10.0034662 C14.6207885,10.0034662 6.75909879,17.8753 6.75909879,27.5856991 C6.75909879,37.2960982 14.6207885,45.167932 24.3186742,45.167932 Z M27.5364822,32.1826572 C25.5473498,31.0835632 22.845217,31.3840967 21.2031925,32.2488972 C20.1863706,32.7841331 19.0956351,33.0384621 18.0212341,33.0384621 C15.5604434,33.0384621 12.774188,31.7054835 11.548693,29.3735888 C9.7886518,26.0235601 11.4821299,23.5142074 14.8282499,21.7510775 C20.8034059,18.60304 28.3891425,18.6292089 34.1548086,21.8164997 C37.4654012,23.6470964 39.0747567,26.1813913 37.2469274,29.4958466 C35.4199148,32.8090753 30.8458496,34.0136627 27.5364822,32.1826572 Z" id="Oval-1" fill="#FFFFFF" sketch:type="MSShapeGroup"></path>
                <path d="M27.3828262,27.4352465 C27.504024,28.5010869 28.950743,29.2627359 30.6576127,29.1433799 C32.395035,29.0218875 33.7408316,28.0358648 33.6643053,26.9414876 C33.6069463,26.1212146 32.7670159,25.4724822 31.6179656,25.2503346 L34.1282445,24.1528827 C28.1863368,24.2691634 26.1663343,28.063413 26.1663343,28.063413 L27.3828262,27.4352465 Z M21.1650412,27.4352465 C21.0438434,28.5010869 19.5971243,29.2627359 17.8902546,29.1433799 C16.1528324,29.0218875 14.8070357,28.0358648 14.883562,26.9414876 C14.9409211,26.1212146 15.7808515,25.4724822 16.9299017,25.2503346 L14.4196228,24.1528827 C20.3615305,24.2691634 22.3815331,28.063413 22.3815331,28.063413 L21.1650412,27.4352465 Z" id="Shape-2" fill="#FFFFFF" sketch:type="MSShapeGroup"></path>
                <path d="M51.9915511,12.4333917 L46.7301517,5.3857543 L39.8442273,0 L37.9868526,1.90218402 L42.4280471,6.44767817 L37.2057788,11.7921927 C36.2759291,11.7489703 35.3321317,12.0804745 34.6215716,12.8077219 C33.2806508,14.1793405 33.2791011,16.405098 34.6211841,17.7783028 C35.9632672,19.1523006 38.138728,19.1523006 39.4800362,17.7790959 C40.1905963,17.0518485 40.5125568,16.0858864 40.4703261,15.1341996 L45.6929818,9.78889197 L50.1337889,14.3339896 L51.9915511,12.4333917 Z" id="Shape-4" fill="#FFFFFF" sketch:type="MSShapeGroup" transform="translate(42.803401, 9.404450) scale(-1, -1) translate(-42.803401, -9.404450) "></path>
                <path d="M3.27824114,49.1169099 C4.78691267,50.7841054 5.73593222,52.2823674 5.73593222,52.2823674 L12.5208394,45.5979052 L13.1415499,38.7521664 L4.44774516,41.4189985 L0,46.374077 C0,46.374077 1.76956961,47.4497145 3.27824114,49.1169099 Z" id="Shape-5" fill="#FFFFFF" sketch:type="MSShapeGroup" transform="translate(6.570775, 45.517267) scale(-1, -1) translate(-6.570775, -45.517267) "></path>
                <path id="Path-25" stroke="#979797" sketch:type="MSShapeGroup" d=""></path>
            </g>
        </g>
    </g>
</svg>