<?xml version="1.0" encoding="UTF-8" standalone="no"?>
<svg width="20px" height="20px" viewBox="0 0 20 20" version="1.1" xmlns="http://www.w3.org/2000/svg" xmlns:xlink="http://www.w3.org/1999/xlink" xmlns:sketch="http://www.bohemiancoding.com/sketch/ns">
    <!-- Generator: Sketch 3.3.3 (12072) - http://www.bohemiancoding.com/sketch -->
    <title>Dota2Logo</title>
    <desc>Created with Sketch.</desc>
    <defs>
        <linearGradient x1="49.4303852%" y1="-0.0904219137%" x2="48.6017004%" y2="100.267415%" id="linearGradient-1">
            <stop stop-color="#BB3119" offset="0%"></stop>
            <stop stop-color="#812112" offset="100%"></stop>
        </linearGradient>
    </defs>
    <g id="Page-1" stroke="none" stroke-width="1" fill="none" fill-rule="evenodd" sketch:type="MSPage">
        <g id="Leagues" sketch:type="MSArtboardGroup" transform="translate(-260.000000, -175.000000)">
            <g id="Dota2Logo" sketch:type="MSLayerGroup" transform="translate(260.000000, 175.000000)">
                <g id="layer1" transform="translate(0.031180, 0.048751)" sketch:type="MSShapeGroup">
                    <path d="M0.377800494,0.369813037 C0.377800494,0.369813037 0.995084444,1.00473333 1.73582519,0.246356247 L1.85144247,0.462058963 L2.3876963,0.487000691 L2.51240642,0.586769086 L2.58723259,0.38723279 L2.66205877,0.399703901 L2.79924,0.586769086 L2.8990079,0.47452958 L3.12348642,0.487000691 L3.26066765,0.636653037 L3.34796444,0.549355753 L4.24587802,0.574297975 L4.45788543,0.449587852 L4.48282765,0.574297975 L4.88190025,0.624181926 L5.04402321,0.399703901 C5.04402321,0.399703901 5.28097284,0.736421432 5.70498716,0.76136316 C6.12900198,0.786305383 6.97703111,0.736421432 6.97703111,0.736421432 C6.97703111,0.736421432 7.22645185,0.97337037 7.31374864,0.736421432 C7.40104593,0.499471802 7.31374864,0.586769086 7.31374864,0.586769086 L7.66293728,0.574297975 C7.66293728,0.574297975 7.7751763,0.636653037 7.8874158,0.15028316 L8.01212593,0.412174519 L8.07448099,0.137812049 L8.46108247,0.175225383 C8.46108247,0.175225383 8.63567654,0.312406617 8.76038716,0.000631308642 C8.76038716,0.000631308642 9.7081842,0.399703901 10.1197279,0.0131019259 C10.1197279,0.0131019259 10.3816193,0.237580444 10.8181052,0.200167605 C11.2545906,0.162754272 11.965439,0.536884642 11.9779101,1.09808049 C11.9779101,1.09808049 12.1400331,0.960899259 12.800997,0.97337037 C12.7885259,0.886073284 13.1626568,0.586769086 12.800997,0.349819457 C12.800997,0.349819457 13.1003017,0.0754569877 16.6046578,0.449587852 C16.6046578,0.449587852 16.7917235,0.437116741 16.6420711,0.187696494 C16.4924188,-0.0617242469 16.8790202,0.0505152593 16.7917235,0.0380441481 C16.7917235,0.0380441481 16.9039625,0.811247111 17.3279773,0.337348346 C17.3279773,0.337348346 18.3007165,0.798776494 18.3131877,0.374761679 L18.5002528,0.487000691 L19.0365067,0.499471802 C19.0365067,0.499471802 18.9741516,0.76136316 19.5852316,0.886073284 C19.5852316,0.886073284 19.8097101,1.89622568 19.5104054,2.05834914 C19.5104054,2.05834914 19.8845358,3.84170469 19.6226444,6.95945975 L19.0489778,6.97193037 L19.2734563,7.54559753 C19.2734563,7.54559753 18.6997891,7.7201916 19.0115644,8.26891654 C19.0115644,8.26891654 19.3108691,8.14420642 19.0988617,8.35621383 C19.0988617,8.35621383 19.0489778,8.58069185 19.3732242,8.64304691 C19.3732242,8.64304691 19.186159,9.41625037 19.5727605,9.39130815 C19.5727605,9.39130815 19.2734563,10.0896854 19.4979343,10.2518084 C19.4979343,10.2518084 19.3233402,10.5760548 19.3856953,11.149722 C19.3856953,11.149722 19.298398,11.2494899 19.1362751,11.1123086 C19.1362751,11.1123086 18.8120281,11.3991422 19.6600578,11.3118449 L19.734884,19.3805946 C19.734884,19.3805946 18.1385931,18.4577393 17.5275136,19.0688193 L18.2757743,19.1311743 L18.2258904,19.2309422 L17.901644,19.2434133 C17.901644,19.2434133 17.9141151,19.6050731 17.6646948,19.2683556 C17.6646948,19.2683556 17.0660859,19.8295511 15.9561649,19.2808262 C15.9561649,19.2808262 15.4199111,19.5053047 14.9834257,19.1685872 C14.9834257,19.1685872 14.684121,19.1062321 14.6217659,19.4055368 C14.6217659,19.4055368 14.1478672,19.3182395 13.4869032,19.5177758 L13.5367872,19.3431812 L13.4494904,19.3431812 L13.4370193,19.5551886 C13.4370193,19.5551886 13.3372509,19.6424859 13.2000696,19.592602 L13.2873669,19.2932973 C13.2873669,19.2932973 13.0878306,19.2309422 13.0130044,19.4180074 L13.1751279,19.3805946 L13.1252435,19.592602 C13.1252435,19.592602 12.738642,19.9792035 12.2647432,19.6674281 L12.7511131,19.6300148 C12.7511131,19.6300148 12.8384104,19.5676598 12.8259393,19.4803625 C12.8259393,19.4803625 10.9178731,19.4554207 10.9802281,19.6050731 L11.1298805,19.7173121 C11.1298805,19.7173121 10.4938588,19.9542612 10.2070252,19.7547249 L10.1945541,19.5676598 L10.0947862,19.5801309 L9.93266272,19.81708 C9.93266272,19.81708 9.65830025,19.3307106 8.81027111,19.6050731 L8.87262617,19.81708 C8.87262617,19.81708 8.57332148,19.7921383 8.46108247,19.9293195 L7.9871837,19.156116 C7.9871837,19.156116 7.28880691,19.4803625 6.93961827,19.1062321 C6.93961827,19.1062321 6.87726321,19.1187032 6.85232099,19.2932973 C6.85232099,19.2932973 6.56548741,19.2808262 6.42830617,18.8443407 C6.42830617,18.8443407 6.20382815,18.9066958 6.29112543,19.2932973 C6.29112543,19.2932973 6.0541758,19.0314059 6.04170469,18.8817536 L5.86711062,19.0688193 L5.99182074,19.2184711 L5.92946568,19.2932973 C5.92946568,19.2932973 5.66757432,19.0189348 5.55533531,19.0812899 L5.56780593,19.2434133 L5.45556691,19.2808262 L5.30591457,19.0563481 C5.30591457,19.0563481 5.1437916,19.1436449 5.13132049,19.2683556 L5.06896543,19.1810583 L4.98166815,19.2434133 L4.86942914,19.2434133 C4.86942914,19.2434133 4.8320158,18.9939931 4.76966074,18.9565798 L4.70730568,19.1187032 L4.48282765,19.1187032 L4.48282765,18.9690509 L4.27082025,19.1187032 C4.27082025,19.1187032 4.02139951,19.0812899 3.97151556,19.3182395 L3.83433432,19.2558844 C3.83433432,19.2558844 3.85927654,18.9939931 3.75950815,18.8817536 C3.75950815,18.8817536 3.62232691,18.8193985 3.59738519,19.1436449 C3.59738519,19.1436449 3.43526173,19.2060005 3.38537778,18.9690509 L3.27313877,18.9690509 L3.29808049,19.2808262 C3.29808049,19.2808262 3.23572543,19.0563481 2.72441383,19.1187032 C2.72441383,19.1187032 2.13827605,19.156116 2.06344988,18.9565798 L2.01356543,19.2683556 C2.01356543,19.2683556 1.97615259,18.9939931 1.42742765,19.2434133 L1.30271753,19.2309422 L1.31518864,19.0688193 L1.24036247,19.0688193 L1.19047852,19.3431812 L1.0657684,19.3182395 C1.0657684,19.3182395 1.19047852,19.1062321 1.05329728,19.0563481 C1.05329728,19.0563481 0.853760988,19.1062321 0.828818765,19.3057684 L0.704108642,19.2434133 L0.716579753,18.9690509 L0.142912593,18.8817536 C0.142912593,18.8817536 0.517043457,18.2083185 0.242680988,15.9884775 C0.242680988,15.9884775 0.255152099,15.2152741 0.379862222,15.0157378 L0.67916642,15.0032667 L0.766463704,12.8831936 L0.379862222,12.8208385 C0.379862222,12.8208385 0.205267654,12.0351644 0.305036049,10.2642795 C0.305036049,10.2642795 0.367391111,10.2268667 0.541985185,10.3765185 L0.59186963,10.2892217 L0.417275062,10.1894533 L0.429746173,10.0023881 L0.766463704,10.1894533 L0.791405926,9.4411921 C0.791405926,9.4411921 0.105499753,9.12941679 0.541985185,8.0194963 C0.541985185,8.0194963 -0.069094321,6.09895901 0.35492,1.62186321 L0.242680988,1.55950815 C0.242680988,1.55950815 0.205267654,1.85881284 0.0182024691,1.57197926 L0.0556158025,0.561826864 L0.280093827,0.586769086 L0.255152099,0.661595259 L0.167854815,0.686536988 L0.205267654,1.14796444 L0.280093827,1.16043556 L0.377800494,0.369813037 Z" id="path3775" fill="url(#linearGradient-1)"></path>
                    <path d="M2.33781235,4.01629926 L7.12668346,9.12941679 C7.12668346,9.12941679 7.48834321,9.07953284 7.60058222,9.36636642 C7.71282123,9.65319951 7.52575605,9.40377926 7.52575605,9.40377926 L7.3761037,9.29154025 L9.3091116,11.3866711 C9.3091116,11.3866711 9.07216247,10.7381783 9.38393778,11.324316 C9.69571358,11.9104543 10.1945541,12.3344686 10.1945541,12.3344686 L10.2693802,12.2222296 L9.98254667,11.8979832 C9.98254667,11.8979832 9.77053975,11.6485625 10.069844,11.8106859 L10.4439743,12.2970558 C10.4439743,12.2970558 10.3566775,12.5714183 10.6435106,12.8083674 L10.5811556,12.6088311 C10.5811556,12.6088311 10.8305763,12.7460123 11.0425837,13.1700272 L11.0301126,13.0079037 L11.24212,13.20744 L11.1548227,13.319679 L13.1501857,15.4522237 C13.1501857,15.4522237 13.6116133,16.5496731 16.1058173,16.3875501 C16.1058173,16.3875501 17.290564,14.8785565 17.3903323,12.6213022 L15.7441575,11.5113817 L14.7838894,11.4240844 L14.79636,11.261961 L15.1580198,11.4116133 L15.2827299,11.4240844 L15.0707225,11.2494899 L15.1704909,11.1372509 L7.25139358,5.74977086 C7.25139358,5.74977086 6.75255309,5.77471259 6.77749481,5.45046617 L6.57795852,5.43799506 L6.46571951,5.32575605 L6.35348049,5.41305333 L6.29112543,5.35069827 L6.36595111,5.22598765 L6.0541758,5.05139358 L6.20382815,5.23845877 L6.12900198,5.2758721 L5.80475556,4.95162568 L5.87958173,4.8643284 L4.40800148,3.82923358 C4.40800148,3.82923358 3.73456691,3.10591506 2.33781235,4.01629926 L2.33781235,4.01629926 Z" id="path3800" fill="#FFFFFF"></path>
                    <path d="M3.85304099,11.9977511 L7.74399901,15.7577635 L4.9879037,16.6432059 L4.81954519,16.537202 C4.81954519,16.537202 4.76342519,16.7741516 4.51400494,16.6057926 C4.51400494,16.6057926 4.6200084,16.7866227 4.7322479,16.4748469 C4.7322479,16.4748469 4.68859901,16.375079 4.62624395,16.4748469 L4.58259556,16.5683798 L4.57012444,16.3875501 L4.45788543,16.4623763 L4.37058815,16.4499052 L4.35188198,16.6120281 L2.70570716,15.3898686 C2.70570716,15.3898686 2.46875802,15.3025714 2.65582321,14.7351398 C2.8428884,14.1677086 3.85304099,11.9977511 3.85304099,11.9977511 L3.85304099,11.9977511 Z" id="path3802" fill="#FFFFFF"></path>
                    <path d="M15.5945057,7.16523111 L15.9935783,4.60243704 L15.8813388,4.60867259 L15.8938099,4.70844049 C15.8938099,4.70844049 15.8439259,4.92668346 15.794042,4.73338272 C15.7441575,4.54008198 15.856397,4.48396198 15.856397,4.48396198 L15.9873427,4.52137531 L15.9935783,4.44031358 L15.1268425,3.80429185 C15.1268425,3.80429185 14.8213022,3.57357778 14.2164578,3.76687852 C13.6116133,3.96017926 11.7347249,4.43407802 11.7347249,4.43407802 L15.0083674,6.94698864 L15.0520163,6.85969136 L14.8961284,6.78486519 C14.8961284,6.78486519 14.7901249,6.65391951 14.9896612,6.66015506 C15.1891975,6.66639062 15.1393131,7.04052099 15.1393131,7.04052099 L15.3263788,7.04052099 L15.4323822,7.17770222 L15.5945057,7.16523111 Z" id="path3804" fill="#FFFFFF"></path>
                </g>
            </g>
        </g>
    </g>
</svg>