<?xml version="1.0" encoding="UTF-8" standalone="no"?>
<svg width="225px" height="40px" viewBox="0 0 225 40" version="1.1" xmlns="http://www.w3.org/2000/svg" xmlns:xlink="http://www.w3.org/1999/xlink" xmlns:sketch="http://www.bohemiancoding.com/sketch/ns">
    <!-- Generator: Sketch 3.3.3 (12072) - http://www.bohemiancoding.com/sketch -->
    <title>logo_ver 2</title>
    <desc>Created with Sketch.</desc>
    <defs></defs>
    <g id="Page-1" stroke="none" stroke-width="1" fill="none" fill-rule="evenodd" sketch:type="MSPage">
        <g id="CyberBet_landing-2" sketch:type="MSArtboardGroup" transform="translate(-40.000000, -3355.000000)">
            <g id="logo_ver-2" sketch:type="MSLayerGroup" transform="translate(40.000000, 3355.000000)">
                <g id="Group" sketch:type="MSShapeGroup">
                    <path d="M18.75,34.5935484 C26.1713263,34.5935484 32.1875,28.5696119 32.1875,21.1387097 C32.1875,13.7078074 26.1713263,7.68387097 18.75,7.68387097 C11.3286737,7.68387097 5.3125,13.7078074 5.3125,21.1387097 C5.3125,28.5696119 11.3286737,34.5935484 18.75,34.5935484 Z M21.212434,24.656541 C19.6902465,23.8154571 17.622434,24.045441 16.3658715,24.7072313 C15.5877465,25.1168216 14.753059,25.3114474 13.9308715,25.3114474 C12.0477465,25.3114474 9.91555897,24.2913829 8.97774647,22.5068958 C7.63087147,19.9432797 8.92680897,18.0229926 11.487434,16.6737539 C16.059934,14.2647119 21.864934,14.2847377 26.2771215,16.7238184 C28.810559,18.1246861 30.0421215,20.0640603 28.6433715,22.6004539 C27.2452465,25.1359087 23.744934,26.0577216 21.212434,24.656541 Z" id="Oval-1" fill="#FFFFFF"></path>
                    <path d="M21.0687321,21.0039925 C21.1614789,21.819629 22.2685836,22.4024823 23.574769,22.311145 C24.9043348,22.2181727 25.9342084,21.4636168 25.8756465,20.6261425 C25.8317523,19.9984269 25.1889939,19.5019832 24.3096809,19.3319843 L26.2306768,18.4921571 C21.6836202,18.5811411 20.1378092,21.4846981 20.1378092,21.4846981 L21.0687321,21.0039925 Z M16.3105597,21.0039925 C16.2178128,21.819629 15.1107082,22.4024823 13.8045228,22.311145 C12.4749569,22.2181727 11.4450834,21.4636168 11.5036453,20.6261425 C11.5475394,19.9984269 12.1902978,19.5019832 13.0696108,19.3319843 L11.1486149,18.4921571 C15.6956716,18.5811411 17.2414826,21.4846981 17.2414826,21.4846981 L16.3105597,21.0039925 Z" id="Shape-2" fill="#FFFFFF"></path>
                    <path d="M39.895804,9.51467774 L35.8695076,4.12145919 L30.6000403,0 L29.1786805,1.45565011 L32.5773135,4.93409855 L28.5809623,9.02399893 C27.869393,8.99092287 27.1471501,9.24460715 26.6033926,9.80113463 C25.5772503,10.8507685 25.5760644,12.5540339 26.6030961,13.6048816 C27.6301278,14.6563362 29.2949035,14.6563362 30.3213423,13.6054885 C30.8650998,13.048961 31.1114807,12.3097566 31.0791636,11.5814763 L35.0758113,7.49096905 L38.4741478,10.969114 L39.895804,9.51467774 Z" id="Shape-4" fill="#FFFFFF" transform="translate(32.864554, 7.196774) scale(-1, -1) translate(-32.864554, -7.196774) "></path>
                    <path d="M2.65868056,37.5776274 C3.81319444,38.853452 4.53943354,40 4.53943354,40 L9.73159722,34.884702 L10.2065972,29.6459868 L3.55364583,31.6867854 L0.15,35.4786691 C0.15,35.4786691 1.50416667,36.3018027 2.65868056,37.5776274 Z" id="Shape-5" fill="#FFFFFF" transform="translate(5.178299, 34.822993) scale(-1, -1) translate(-5.178299, -34.822993) "></path>
                    <path id="Path-25" stroke="#979797" d=""></path>
                </g>
                <g id="Shape-+-Shape" transform="translate(44.000000, 15.000000)" sketch:type="MSShapeGroup">
                    <path d="M12.9143228,2.40082046 C12.3197027,2.99755335 11.7457544,3.6176634 11.1377584,4.20086214 C11.0125112,4.28452778 10.9213118,4.09258896 10.8288964,4.03845237 C10.1807726,3.38020063 9.35754599,2.87943715 8.45041589,2.6998021 C6.90124198,2.35160538 5.20128505,2.88804979 4.10810817,4.04829538 C2.4142312,5.71422596 2.2148085,8.6437538 3.66670304,10.5299219 C4.68448842,11.9522378 6.52185245,12.7544437 8.23883327,12.4370064 C9.35146603,12.2536802 10.3522275,11.6188056 11.1012786,10.7796884 C11.7068427,11.3911858 12.3124067,12.0014529 12.9143228,12.6166414 C11.6180753,13.9946638 9.84151083,14.9617401 7.94577918,15.0724741 C6.07436737,15.2028941 4.16039583,14.5778625 2.71336525,13.3696322 C1.30524642,12.2118474 0.338532715,10.5102358 0.0880383461,8.69050813 C-0.222039635,6.70714027 0.295972992,4.60688658 1.49980515,3.00985712 C2.66229358,1.43128332 4.46804183,0.362085631 6.39295729,0.0889419176 C8.77022181,-0.302317996 11.2824615,0.620464819 12.9143228,2.40082046 Z M12.7598918,0.355933746 C13.8676606,0.347321106 14.9766454,0.346090729 16.0844142,0.357164123 C17.9436661,2.76255133 19.8187259,5.15686514 21.6840577,7.55856121 C23.5129098,5.15932589 25.3563538,2.76870321 27.170614,0.357164123 C28.2601429,0.346090729 29.3484558,0.346090729 30.4379847,0.3583945 C27.9610088,3.5426104 25.5168648,6.7538946 23.0484008,9.94426239 C22.8939698,10.0968291 22.9353136,10.3256793 22.9268016,10.52377 C22.9316656,11.9325518 22.9280176,13.3425639 22.9292336,14.752576 C22.0610153,14.752576 21.1927969,14.7587279 20.3233626,14.7488849 C20.3221466,13.2539768 20.3270106,11.7578382 20.3221466,10.2629301 C20.3464664,10.0414622 20.1664996,9.89135617 20.0521963,9.73017677 C17.6117002,6.61363161 15.2040359,3.47001815 12.7598918,0.355933746 Z M54.7254257,0.351012237 L54.7254257,2.86836376 L48.370651,2.86836376 C48.369435,3.99169804 48.3597071,5.1162627 48.375515,6.23959698 C50.0365602,6.23959698 52.9963067,6.23713622 54.6573519,6.24082735 C54.6609998,7.07502302 54.6597838,7.90921868 54.6585678,8.74341435 C52.9950907,8.7458751 50.0329122,8.74464473 48.369435,8.74464473 C48.3657871,9.90119919 48.3682191,11.0577536 48.3682191,12.2143081 C50.0560161,12.2130777 51.7438131,12.2155385 53.4328261,12.2130777 C53.8486954,12.2167689 54.2682126,12.1872398 54.6804339,12.2659839 C54.668274,13.0940277 54.676786,13.9220715 54.674354,14.7501153 C51.7207092,14.7587279 48.7670645,14.7513457 45.8134197,14.7538064 C45.8122037,9.95164465 45.8158517,5.15071325 45.8122037,0.348551483 C48.7828724,0.352242614 51.754757,0.34978186 54.7254257,0.351012237 Z M56.7366766,0.34978186 C58.509593,0.352242614 60.2825095,0.34978186 62.0554259,0.34978186 C62.6245102,0.353472991 63.2021065,0.323943941 63.7614628,0.459285421 C64.8667996,0.693057067 65.8602651,1.3783771 66.5083889,2.30977256 C67.3644474,3.52538512 67.6112937,5.16670816 67.1236809,6.57918105 C66.6786278,7.89814529 65.5586991,8.9341228 64.2527236,9.34875988 C65.3604924,11.1684876 66.5375727,12.9426913 67.6647974,14.7488849 C66.6105323,14.7562672 65.5562671,14.7562672 64.502002,14.7501153 C63.4744887,13.0718809 62.4311675,11.4022592 61.3854143,9.73509828 C60.6874348,9.74001979 59.9894554,9.73755904 59.2926919,9.73632866 C59.285396,11.4084111 59.2914759,13.0804936 59.2890439,14.752576 C58.4378495,14.7550368 57.587871,14.7538064 56.7366766,14.7538064 C56.7366766,9.95164465 56.7378926,5.15071325 56.7366766,0.34978186 Z M59.2926919,2.86836376 C60.4259965,2.88066753 61.5593012,2.84621697 62.6913898,2.88435866 C63.7711908,2.91634846 64.6989927,3.90434126 64.6904808,4.99322499 C64.7828962,6.09687323 63.8988699,7.15622791 62.8020451,7.22882015 C61.6322607,7.26204034 60.4624763,7.23251129 59.2926919,7.24358468 C59.2878279,5.78435745 59.286612,4.32636061 59.2926919,2.86836376 Z M69.3319225,0.355933746 C72.0180491,0.344860352 74.7053916,0.34978186 77.3915181,0.353472991 C79.2836017,0.351012237 81.0650301,2.04401111 80.9908546,3.99538917 C81.0236864,5.16670816 80.3986665,6.27896904 79.4453287,6.92491701 C81.2875567,7.61392818 82.0913275,9.92457635 81.4979233,11.734461 C81.0017986,13.4828269 79.2872497,14.7378115 77.5021733,14.7513457 C74.7795671,14.7550368 72.0569608,14.7574976 69.3343545,14.7501153 C69.3331385,9.95164465 69.3380025,5.15440439 69.3319225,0.355933746 Z M71.8611861,2.84744735 C73.5453351,2.85852074 75.2294841,2.83145244 76.9136332,2.85975112 C77.858459,2.88066753 78.6050782,3.91049315 78.318104,4.82712408 C78.173401,5.5296694 77.4778535,6.01443797 76.785954,6.00828608 C75.1443647,6.01320759 73.5015594,6.00705571 71.8599701,6.01074684 C71.8636181,4.95631367 71.8624021,3.90188051 71.8611861,2.84744735 Z M71.8599701,8.47642252 C73.6073507,8.4776529 75.3559473,8.46780988 77.1033279,8.48011365 C78.0530178,8.4776529 78.9042122,9.32415233 78.9078602,10.2863072 C78.9516359,11.264457 78.1247613,12.2143081 77.1398077,12.210617 C75.3802672,12.2179992 73.6195106,12.2130777 71.8587541,12.2130777 C71.8636181,10.9667057 71.8624021,9.72156413 71.8599701,8.47642252 Z M31.6626026,0.355933746 C34.3487291,0.344860352 37.0360716,0.34978186 39.7221981,0.353472991 C41.6142818,0.351012237 43.3957102,2.04401111 43.3215347,3.99538917 C43.3543665,5.16670816 42.7293466,6.27896904 41.7760088,6.92491701 C43.6182368,7.61392818 44.4220075,9.92457635 43.8286034,11.734461 C43.3324786,13.4828269 41.6179298,14.7378115 39.8328534,14.7513457 C37.1102471,14.7550368 34.3876409,14.7574976 31.6650346,14.7501153 C31.6638186,9.95164465 31.6686826,5.15440439 31.6626026,0.355933746 Z M34.1918661,2.84744735 C35.8760152,2.85852074 37.5601642,2.83145244 39.2443132,2.85975112 C40.1891391,2.88066753 40.9357582,3.91049315 40.6487841,4.82712408 C40.504081,5.5296694 39.8085336,6.01443797 39.1166341,6.00828608 C37.4750448,6.01320759 35.8322395,6.00705571 34.1906502,6.01074684 C34.1942981,4.95631367 34.1930821,3.90188051 34.1918661,2.84744735 Z M34.1906502,8.47642252 C35.9380308,8.4776529 37.6866274,8.46780988 39.434008,8.48011365 C40.3836978,8.4776529 41.2348923,9.32415233 41.2385403,10.2863072 C41.282316,11.264457 40.4554414,12.2143081 39.4704878,12.210617 C37.7109472,12.2179992 35.9501907,12.2130777 34.1894342,12.2130777 C34.1942981,10.9667057 34.1930821,9.72156413 34.1906502,8.47642252 Z M92.1018745,0.351012237 L92.1018745,2.86836376 C89.9848323,2.86959413 87.8677901,2.86836376 85.7507479,2.86836376 C85.7495319,3.99169804 85.7434519,5.1162627 85.7543958,6.23959698 C87.414225,6.23959698 90.3739715,6.23713622 92.0338007,6.24082735 C92.0374487,7.07502302 92.0350167,7.90921868 92.0350167,8.74464473 C90.3727555,8.7458751 87.411793,8.74464473 85.7507479,8.74464473 C85.7470999,9.90119919 85.7495319,11.0577536 85.7495319,12.2143081 L92.0471549,12.2143081 C92.0483708,13.0595772 92.0471549,13.9060766 92.0483708,14.752576 C89.0947261,14.7550368 86.1422973,14.7538064 83.1886525,14.7538064 C83.1874365,9.95164465 83.1910845,5.15071325 83.1862206,0.348551483 C86.1581052,0.352242614 89.1299899,0.34978186 92.1018745,0.351012237 Z M93.6719249,0.34978186 C98.0738163,0.355933746 102.476924,0.342399598 106.878815,0.355933746 C106.877599,1.19135979 106.877599,2.02678583 106.878815,2.86221187 C105.13873,2.8769764 103.39743,2.86467263 101.657345,2.86836376 C101.648833,6.8289476 101.656129,10.7895314 101.653697,14.7501153 C100.767239,14.7574976 99.8819965,14.752576 98.9955383,14.7538064 C98.9943223,10.7919922 98.9979703,6.83140836 98.9943223,2.86959413 C97.2201898,2.86713338 95.4460574,2.86959413 93.6719249,2.86959413 C93.6731409,2.02924658 93.6731409,1.18889903 93.6719249,0.34978186 Z" id="Shape" fill="#754FBA"></path>
                    <path d="M139.942544,0 C143.420282,2.49766549 146.912611,4.97687532 150.391564,7.47208005 C150.408588,5.07407511 150.391564,2.67607016 150.400076,0.278065222 C151.656196,0.276834845 152.912316,0.279295599 154.168436,0.276834845 C154.16722,5.17250527 154.178164,10.0681757 154.163572,14.9650765 C150.68705,12.4095833 147.228769,9.82825217 143.735224,7.29859688 C143.726712,9.76181181 143.734008,12.2262571 143.731576,14.689472 L139.938896,14.689472 C139.941328,9.79257124 139.9316,4.89690081 139.942544,0 Z M114.860276,0.0098430167 C118.342877,2.49520473 121.82183,4.98794871 125.306864,7.4696193 C125.317808,5.07161435 125.305648,2.67483979 125.31416,0.278065222 C126.572711,0.279295599 127.832479,0.276834845 129.092247,0.278065222 C129.087383,5.17373565 129.098327,10.0706365 129.086167,14.9663069 C125.60235,12.4108137 122.12826,9.84178632 118.648091,7.2813716 C118.644443,9.75073842 118.648091,12.2201052 118.646875,14.689472 L114.857844,14.689472 C114.85906,9.79626237 114.854196,4.90305269 114.860276,0.0098430167 Z M132.657251,0.276834845 C135.05154,0.279295599 133.967444,0.278065222 136.361732,0.278065222 C136.36538,1.47891326 136.362948,2.6797613 136.362948,3.88183971 C135.768328,3.88553084 136.90986,3.85723217 136.317672,3.92121178 C136.323752,6.30691295 136.318888,8.69261412 136.320104,11.0795457 C136.913508,11.0820064 135.768328,11.0795457 136.362948,11.080776 C136.364164,12.2840848 136.364164,13.4873936 136.362948,14.6907024 C133.967444,14.6882417 135.050324,14.6907024 132.656035,14.689472 C132.654819,13.4861633 132.654819,12.2828545 132.654819,11.0795457 C132.667264,8.67907997 132.676992,6.27984465 132.664832,3.88060933 C132.656035,2.6797613 132.652387,1.47768288 132.657251,0.276834845 Z M156.351142,0.276834845 C158.330777,0.278065222 160.309196,0.279295599 162.288831,0.276834845 L162.288831,11.7697872 C162.300991,12.8648228 162.309503,14.013995 161.823106,15.0204435 C161.443716,15.8300316 160.772489,16.4439898 160.080589,16.9779734 C159.267091,17.5968531 158.44508,18.2021986 157.609693,18.7890885 C156.923874,17.8072476 156.190631,16.8586268 155.504811,15.8780163 C156.387621,15.2652885 157.246112,14.6156494 158.104602,13.9697014 C158.524119,13.6731806 158.711382,13.1478096 158.701654,12.6445853 C158.70287,9.72367012 158.710166,6.80152454 158.698006,3.88060933 C157.914907,3.88060933 157.131808,3.88183971 156.349926,3.87937896 C156.34871,2.67853092 156.34871,1.47768288 156.351142,0.276834845 Z M170.231191,0.278065222 C171.462991,0.276834845 172.697223,0.279295599 173.930239,0.276834845 C176.092273,5.07038398 178.216611,9.88115839 180.365269,14.6820898 C178.965662,14.7005454 177.567271,14.6833202 176.167664,14.6907024 C175.909874,14.1185771 175.688563,13.5304568 175.412533,12.9681745 C173.231043,12.9755568 171.048338,12.9706353 168.866848,12.9706353 C168.649185,13.543991 168.419363,14.1111948 168.208996,14.6870113 C166.820333,14.6882417 165.432886,14.6968543 164.045439,14.6820898 C166.101682,9.87869763 168.1713,5.08022699 170.231191,0.278065222 Z M170.253079,9.58709826 C170.859859,8.12664066 171.483663,6.67356532 172.077067,5.20818621 C172.728839,6.66126155 173.345347,8.13033179 173.986174,9.58832864 C172.742215,9.5957109 171.497039,9.5957109 170.253079,9.58709826 Z" id="Shape" fill="#FFFFFF"></path>
                    <ellipse id="Oval-116" fill="#FFFFFF" cx="108.428571" cy="12.5227273" rx="2.14285714" ry="2.15909091"></ellipse>
                </g>
            </g>
        </g>
    </g>
</svg>