<?xml version="1.0" encoding="UTF-8" standalone="no"?>
<svg width="165px" height="168px" viewBox="0 0 165 168" version="1.1" xmlns="http://www.w3.org/2000/svg" xmlns:xlink="http://www.w3.org/1999/xlink" xmlns:sketch="http://www.bohemiancoding.com/sketch/ns">
    <!-- Generator: Sketch 3.3.3 (12072) - http://www.bohemiancoding.com/sketch -->
    <title>logo_ver</title>
    <desc>Created with Sketch.</desc>
    <defs></defs>
    <g id="Page-1" stroke="none" stroke-width="1" fill="none" fill-rule="evenodd" sketch:type="MSPage">
        <g id="CyberBet_landing-2" sketch:type="MSArtboardGroup" transform="translate(-557.000000, -34.000000)">
            <g id="logo_ver" sketch:type="MSLayerGroup" transform="translate(557.000000, 41.000000)">
                <g id="Group" transform="translate(41.000000, 0.000000)" sketch:type="MSShapeGroup">
                    <path d="M42.1875,77.8354839 C58.8854842,77.8354839 72.421875,64.2816268 72.421875,47.5620968 C72.421875,30.8425668 58.8854842,17.2887097 42.1875,17.2887097 C25.4895158,17.2887097 11.953125,30.8425668 11.953125,47.5620968 C11.953125,64.2816268 25.4895158,77.8354839 42.1875,77.8354839 Z M47.7279764,55.4772172 C44.3030546,53.5847785 39.6504764,54.1022422 36.8232108,55.5912704 C35.0724296,56.5128486 33.1943827,56.9507567 31.3444608,56.9507567 C27.1074296,56.9507567 22.3100077,54.6556115 20.1999296,50.6405156 C17.1694608,44.8723793 20.0853202,40.5517333 25.8467264,37.5159462 C36.1348514,32.0956018 49.1961014,32.1406599 59.1235233,37.6285914 C64.8237577,40.7805438 67.5947733,45.1441357 64.4475858,50.8510212 C61.3018046,56.5557946 53.4261014,58.6298736 47.7279764,55.4772172 Z" id="Oval-1" fill="#FFFFFF"></path>
                    <path d="M47.4046471,47.258983 C47.6133275,49.0941652 50.104313,50.4055853 53.0432302,50.2000762 C56.0347533,49.9908885 58.3519689,48.2931379 58.2202046,46.4088206 C58.1214427,44.9964606 56.6752364,43.8794622 54.6967821,43.4969647 L59.0190229,41.6073534 C48.7881454,41.8075675 45.3100707,48.3405707 45.3100707,48.3405707 L47.4046471,47.258983 Z M36.6987593,47.258983 C36.4900789,49.0941652 33.9990935,50.4055853 31.0601762,50.2000762 C28.0686531,49.9908885 25.7514376,48.2931379 25.8832019,46.4088206 C25.9819637,44.9964606 27.4281701,43.8794622 29.4066243,43.4969647 L25.0843835,41.6073534 C35.3152611,41.8075675 38.7933357,48.3405707 38.7933357,48.3405707 L36.6987593,47.258983 Z" id="Shape-2" fill="#FFFFFF"></path>
                    <path d="M89.765559,21.4080249 L80.706392,9.27328319 L68.8500906,0 L65.6520312,3.27521274 L73.2989554,11.1017217 L64.3071652,20.3039976 C62.7061342,20.2295765 61.0810878,20.8003661 59.8576333,22.0525529 C57.5488132,24.4142291 57.5461448,28.2465763 59.8569662,30.6109835 C62.1677876,32.9767563 65.9135329,32.9767563 68.2230201,30.6123491 C69.4464746,29.3601622 70.0008316,27.6969523 69.9281181,26.0583218 L78.9205754,16.8546804 L86.5668325,24.6805066 L89.765559,21.4080249 Z" id="Shape-4" fill="#FFFFFF" transform="translate(73.945246, 16.192742) scale(-1, -1) translate(-73.945246, -16.192742) "></path>
                    <path d="M5.98203125,84.5496616 C8.5796875,87.4202671 10.2137255,90 10.2137255,90 L21.8960938,78.4905796 L22.9648438,66.7034702 L7.99570313,71.2952671 L0.3375,79.8270054 C0.3375,79.8270054 3.384375,81.6790562 5.98203125,84.5496616 Z" id="Shape-5" fill="#FFFFFF" transform="translate(11.651172, 78.351735) scale(-1, -1) translate(-11.651172, -78.351735) "></path>
                    <path id="Path-25" stroke="#979797" d=""></path>
                </g>
                <g id="Shape-+-Shape" transform="translate(0.000000, 99.000000)" sketch:type="MSShapeGroup">
                    <path d="M19.8880572,3.66709867 C18.9723422,4.57856973 18.0884618,5.52574791 17.1521479,6.41654643 C16.9592673,6.54434031 16.8188202,6.25116611 16.6765005,6.16847596 C15.6783898,5.16303881 14.4106208,4.39815484 13.0136405,4.12377386 C10.6279127,3.5919258 8.00997898,4.41131009 6.32648658,6.18351053 C3.71791605,8.72811222 3.41080509,13.2027774 5.64672269,16.0837777 C7.21411216,18.2562736 10.0436528,19.4815914 12.6878032,18.9967264 C14.4012577,18.7167075 15.9424304,17.7469774 17.0959691,16.46528 C18.0285377,17.3993029 18.9611064,18.3314465 19.8880572,19.2711074 C17.8918359,21.3759478 15.1559267,22.8530947 12.2364999,23.0222337 C9.35452574,23.2214418 6.40700958,22.2667463 4.17858249,20.4212523 C2.01007949,18.6528105 0.521340381,16.0537085 0.135579053,13.2741916 C-0.341941038,10.2447249 0.455798408,7.03672262 2.30969994,4.59736295 C4.09993212,2.18619311 6.88078441,0.553062487 9.84515423,0.135853052 C13.5061416,-0.461771273 17.3749906,0.94772006 19.8880572,3.66709867 Z M19.6502334,0.543665878 C21.3561974,0.530510625 23.0640339,0.528631304 24.7699978,0.5455452 C27.6332458,4.21961927 30.5208378,7.87677945 33.3934489,11.5452156 C36.2098811,7.8805381 39.0487849,4.22901588 41.8427455,0.5455452 C43.5206201,0.528631304 45.196622,0.528631304 46.8744965,0.547424521 C43.0599536,5.41110928 39.2959717,10.3161391 35.4945373,15.1892205 C35.2567136,15.4222564 35.3203829,15.7718102 35.3072745,16.074381 C35.314765,18.2262045 35.3091471,20.3799072 35.3110198,22.53361 C33.9739635,22.53361 32.6369073,22.5430066 31.2979784,22.527972 C31.2961057,20.2445961 31.3035963,17.9593408 31.2961057,15.6759648 C31.3335583,15.3376869 31.0564094,15.1084096 30.8803824,14.8622185 C27.1220184,10.1018964 23.4142153,5.3002293 19.6502334,0.543665878 Z M84.2771555,0.536148591 L84.2771555,4.38124095 L74.4908026,4.38124095 C74.48893,6.09706173 74.4739489,7.81476183 74.4982931,9.53058262 C77.0563027,9.53058262 81.6143123,9.52682397 84.1723219,9.53246194 C84.1779397,10.8066421 84.1760671,12.0808223 84.1741945,13.3550024 C81.6124396,13.3587611 77.0506848,13.3568818 74.48893,13.3568818 C74.4833121,15.1234442 74.4870573,16.8900067 74.4870573,18.6565692 C77.0862647,18.6546898 79.6854721,18.6584485 82.2865522,18.6546898 C82.9269909,18.6603278 83.5730475,18.6152241 84.2078683,18.7355007 C84.189142,20.0002842 84.2022504,21.2650678 84.1985051,22.5298513 C79.6498922,22.5430066 75.1012793,22.5317307 70.5526663,22.5354893 C70.5507937,15.2004964 70.5564116,7.86738284 70.5507937,0.532389947 C75.1256234,0.538027912 79.7023258,0.534269269 84.2771555,0.536148591 Z M87.3744819,0.534269269 C90.1047732,0.538027912 92.8350646,0.534269269 95.5653559,0.534269269 C96.4417457,0.539907234 97.3312439,0.494803512 98.1926527,0.701528907 C99.8948714,1.05860004 101.424808,2.10538227 102.422919,3.52802886 C103.741249,5.38479878 104.121392,7.89181403 103.370469,10.0492754 C102.685087,12.0639084 100.960397,13.6462973 98.9491944,14.2796287 C100.655158,17.0591457 102.467862,19.7691277 104.203788,22.527972 C102.58022,22.539248 100.956651,22.539248 99.3330831,22.5298513 C97.7507126,19.9664564 96.1439979,17.4162168 94.533538,14.8697358 C93.4586496,14.8772531 92.3837613,14.8734944 91.3107455,14.8716151 C91.2995098,17.4256134 91.3088729,19.9796117 91.3051277,22.53361 C89.9942882,22.5373686 88.6853214,22.5354893 87.3744819,22.5354893 C87.3744819,15.2004964 87.3763545,7.86738284 87.3744819,0.534269269 Z M91.3107455,4.38124095 C93.0560347,4.40003416 94.8013238,4.34741315 96.5447403,4.40567213 C98.2076338,4.4545345 99.6364488,5.96362988 99.6233404,7.62682966 C99.7656601,9.31258129 98.4042597,10.9306773 96.7151494,11.0415573 C94.9136814,11.092299 93.1122135,11.0471953 91.3107455,11.0641092 C91.303255,8.83523356 91.3013824,6.60823725 91.3107455,4.38124095 Z M106.771161,0.543665878 C110.907796,0.526751982 115.046303,0.534269269 119.182938,0.539907234 C122.096747,0.536148591 124.840146,3.12209536 124.725916,6.10269969 C124.776477,7.89181403 123.813946,9.59072091 122.345806,10.5773648 C125.182837,11.629785 126.420644,15.1591513 125.506802,17.9236337 C124.74277,20.5941499 122.102365,22.5110581 119.353347,22.5317307 C115.160533,22.5373686 110.96772,22.5411273 106.774906,22.5298513 C106.773033,15.2004964 106.780524,7.87302081 106.771161,0.543665878 Z M110.666227,4.34929248 C113.259816,4.36620637 115.853406,4.32486129 118.446995,4.36808569 C119.902027,4.40003416 121.05182,5.97302649 120.60988,7.37312122 C120.387037,8.44621395 119.315894,9.18666673 118.250369,9.17727012 C115.722322,9.18478741 113.192401,9.1753908 110.664354,9.18102877 C110.669972,7.57045 110.668099,5.95987124 110.666227,4.34929248 Z M110.664354,12.9471896 C113.35532,12.9490689 116.048159,12.9340344 118.739125,12.9528276 C120.201647,12.9490689 121.512487,14.2420423 121.518105,15.7116719 C121.585519,17.2057328 120.312132,18.6565692 118.795304,18.6509312 C116.085611,18.6622071 113.374046,18.6546898 110.662481,18.6546898 C110.669972,16.7509369 110.668099,14.8490632 110.664354,12.9471896 Z M48.760408,0.543665878 C52.8970429,0.526751982 57.0355503,0.534269269 61.1721851,0.539907234 C64.085994,0.536148591 66.8293937,3.12209536 66.7151634,6.10269969 C66.7657244,7.89181403 65.8031937,9.59072091 64.3350535,10.5773648 C67.1720846,11.629785 68.4098916,15.1591513 67.4960492,17.9236337 C66.7320171,20.5941499 64.0916119,22.5110581 61.3425943,22.5317307 C57.1497806,22.5373686 52.9569669,22.5411273 48.7641533,22.5298513 C48.7622807,15.2004964 48.7697712,7.87302081 48.760408,0.543665878 Z M52.6554739,4.34929248 C55.2490634,4.36620637 57.8426529,4.32486129 60.4362424,4.36808569 C61.8912742,4.40003416 63.0410677,5.97302649 62.5991275,7.37312122 C62.3762848,8.44621395 61.3051417,9.18666673 60.2396165,9.17727012 C57.7115689,9.18478741 55.1816488,9.1753908 52.6536012,9.18102877 C52.6592191,7.57045 52.6573465,5.95987124 52.6554739,4.34929248 Z M52.6536012,12.9471896 C55.3445674,12.9490689 58.0374062,12.9340344 60.7283723,12.9528276 C62.1908947,12.9490689 63.5017341,14.2420423 63.507352,15.7116719 C63.5747666,17.2057328 62.3013797,18.6565692 60.7845512,18.6509312 C58.0748587,18.6622071 55.3632937,18.6546898 52.6517286,18.6546898 C52.6592191,16.7509369 52.6573465,14.8490632 52.6536012,12.9471896 Z M141.836887,0.536148591 L141.836887,4.38124095 C138.576642,4.38312027 135.316397,4.38124095 132.056152,4.38124095 C132.054279,6.09706173 132.044916,7.81476183 132.06177,9.53058262 C134.617907,9.53058262 139.175916,9.52682397 141.732053,9.53246194 C141.737671,10.8066421 141.733926,12.0808223 141.733926,13.3568818 C139.174043,13.3587611 134.614161,13.3568818 132.056152,13.3568818 C132.050534,15.1234442 132.054279,16.8900067 132.054279,18.6565692 L141.752618,18.6565692 C141.754491,19.9476632 141.752618,21.2406366 141.754491,22.53361 C137.205878,22.5373686 132.659138,22.5354893 128.110525,22.5354893 C128.108652,15.2004964 128.11427,7.86738284 128.10678,0.532389947 C132.683482,0.538027912 137.260184,0.534269269 141.836887,0.536148591 Z M144.254764,0.534269269 C151.033677,0.543665878 157.814462,0.522993338 164.593375,0.543665878 C164.591502,1.81972536 164.591502,3.09578485 164.593375,4.37184434 C161.913645,4.3943962 159.232042,4.37560298 156.552311,4.38124095 C156.539203,10.4307777 156.550439,16.4803145 156.546693,22.5298513 C155.181548,22.5411273 153.818275,22.53361 152.453129,22.5354893 C152.451256,16.4840732 152.456874,10.4345364 152.451256,4.38312027 C149.719092,4.37936162 146.986928,4.38312027 144.254764,4.38312027 C144.256637,3.09954349 144.256637,1.81596672 144.254764,0.534269269 Z" id="Shape" fill="#754FBA"></path>
                    <path d="M70.7605506,33.2463768 C76.1162661,37.0614 81.4944532,40.8482334 86.8520413,44.659498 C86.8782581,40.9966998 86.8520413,37.3339017 86.8651497,33.6711035 C88.7995742,33.6692242 90.7339987,33.6729829 92.6684233,33.6692242 C92.6665506,41.1470456 92.6834043,48.6248669 92.6609328,56.1045676 C87.3070899,52.2012163 81.9813364,48.2583992 76.6012767,44.3945136 C76.5881683,48.1569158 76.5994041,51.9211973 76.5956588,55.6835995 L70.7549327,55.6835995 C70.7586779,48.2038988 70.7436969,40.7260775 70.7605506,33.2463768 Z M32.1338568,33.2614114 C37.4970629,37.0576414 42.854651,40.8651473 48.2216023,44.6557393 C48.2384559,40.9929412 48.2197297,37.3320224 48.2328381,33.6711035 C50.1710078,33.6729829 52.1110502,33.6692242 54.0510927,33.6711035 C54.0436021,41.1489249 54.0604558,48.6286256 54.0417295,56.1064469 C48.6766509,52.2030956 43.3265532,48.2790717 37.9670924,44.3682031 C37.9614745,48.1400019 37.9670924,51.9118007 37.9652198,55.6835995 L32.1301116,55.6835995 C32.1319842,48.2095368 32.1244937,40.7354741 32.1338568,33.2614114 Z M59.541199,33.6692242 C63.2284031,33.6729829 61.5588959,33.6711035 65.2461001,33.6711035 C65.251718,35.5053216 65.2479727,37.3395396 65.2479727,39.175637 C64.3322577,39.181275 66.0902168,39.1380506 65.1782471,39.2357753 C65.1876102,42.8797802 65.1801197,46.5237852 65.1819923,50.1696694 C66.0958347,50.1734281 64.3322577,50.1696694 65.2479727,50.1715487 C65.2498453,52.0095254 65.2498453,53.8475021 65.2479727,55.6854788 C61.5588959,55.6817202 63.2265305,55.6854788 59.5393263,55.6835995 C59.5374537,53.8456228 59.5374537,52.0076461 59.5374537,50.1696694 C59.5566184,46.5031126 59.5715994,42.8384352 59.5528732,39.1737577 C59.5393263,37.3395396 59.5337085,35.5034423 59.541199,33.6692242 Z M96.0297902,33.6692242 C99.0784283,33.6711035 102.125194,33.6729829 105.173832,33.6692242 L105.173832,51.2239689 C105.192558,52.8965653 105.205666,54.6518519 104.456615,56.1891371 C103.872355,57.4257308 102.838665,58.3635124 101.77314,59.179138 C100.520352,60.1244369 99.2544553,61.0490632 97.96796,61.9454997 C96.9117979,60.4458009 95.7826033,58.9968438 94.7264412,57.4990243 C96.085969,56.5631221 97.4080442,55.5708402 98.7301195,54.5841963 C99.3761761,54.1312797 99.6645608,53.3288093 99.6495797,52.5601667 C99.6514524,48.0986568 99.6626881,43.6352676 99.6439619,39.1737577 C98.4379895,39.1737577 97.2320172,39.175637 96.0279176,39.1718784 C96.0260449,37.3376603 96.0260449,35.5034423 96.0297902,33.6692242 Z M117.405066,33.6711035 C119.302038,33.6692242 121.202755,33.6729829 123.1016,33.6692242 C126.431132,40.9910619 129.702613,48.33921 133.011546,55.6723236 C130.856152,55.7005134 128.70263,55.6742029 126.547235,55.6854788 C126.150238,54.8115942 125.80942,53.9132784 125.384333,53.0544283 C122.024839,53.0657043 118.663472,53.058187 115.303978,53.058187 C114.968777,53.9339509 114.614851,54.8003183 114.290886,55.6798409 C112.152345,55.6817202 110.015677,55.6948754 107.879009,55.6723236 C111.045622,48.3354514 114.232835,41.0060964 117.405066,33.6711035 Z M117.438774,47.8900521 C118.373215,45.6592971 119.333873,43.4398181 120.247715,41.2015459 C121.251444,43.4210249 122.200866,45.6649351 123.187741,47.8919314 C121.272043,47.9032074 119.354472,47.9032074 117.438774,47.8900521 Z" id="Shape" fill="#FFFFFF"></path>
                </g>
            </g>
        </g>
    </g>
</svg>