<?xml version="1.0" encoding="UTF-8" standalone="no"?>
<svg width="12px" height="12px" viewBox="0 0 12 12" version="1.1" xmlns="http://www.w3.org/2000/svg" xmlns:xlink="http://www.w3.org/1999/xlink" xmlns:sketch="http://www.bohemiancoding.com/sketch/ns">
    <!-- Generator: Sketch 3.3.3 (12072) - http://www.bohemiancoding.com/sketch -->
    <title>logout-icon</title>
    <desc>Created with Sketch.</desc>
    <defs></defs>
    <g id="Page-1" stroke="none" stroke-width="1" fill="none" fill-rule="evenodd" sketch:type="MSPage">
        <g id="Leagues" sketch:type="MSArtboardGroup" transform="translate(-208.000000, -283.000000)" fill="#556276">
            <g id="logout-icon" sketch:type="MSLayerGroup" transform="translate(208.000000, 283.000000)">
                <path d="M3.21088235,9.06688235 C3.27988235,9.10747059 3.357,9.12794118 3.43429412,9.12794118 C3.50841176,9.12794118 3.58235294,9.10941176 3.64923529,9.07217647 L8.32482353,6.46447059 C8.46458824,6.38664706 8.55123529,6.23911765 8.55123529,6.07905882 C8.55123529,5.919 8.46458824,5.77164706 8.32482353,5.69364706 L3.64923529,3.08576471 C3.51264706,3.00988235 3.34588235,3.01164706 3.21105882,3.09088235 C3.07605882,3.16976471 2.99329412,3.31464706 2.99329412,3.471 L2.99329412,4.90129412 L0.443470588,4.90129412 C0.199764706,4.90129412 0.00229411765,5.09876471 0.00229411765,5.34247059 L0.00229411765,6.81494118 C0.00229411765,7.05864706 0.199764706,7.25611765 0.443470588,7.25611765 L2.99311765,7.25611765 L2.99311765,8.68641176 C2.99311765,8.84311765 3.07605882,8.988 3.21088235,9.06688235 L3.21088235,9.06688235 Z" id="Shape" sketch:type="MSShapeGroup"></path>
                <path d="M11.6445882,10.1947059 L11.6445882,1.80529412 C11.6445882,0.827470588 10.8490588,0.0319411765 9.87141176,0.0319411765 L3.525,0.0319411765 C3.13517647,0.0319411765 2.81911765,0.348 2.81911765,0.737823529 C2.81911765,1.12764706 3.13517647,1.44370588 3.525,1.44370588 L9.87158824,1.44370588 C10.071,1.44370588 10.233,1.60570588 10.233,1.80529412 L10.233,10.1947059 C10.233,10.3939412 10.071,10.5562941 9.87158824,10.5562941 L3.525,10.5562941 C3.13517647,10.5562941 2.81911765,10.8723529 2.81911765,11.2621765 C2.81911765,11.652 3.13517647,11.9680588 3.525,11.9680588 L9.87158824,11.9680588 C10.8492353,11.9678824 11.6445882,11.1725294 11.6445882,10.1947059 L11.6445882,10.1947059 Z" id="Shape" sketch:type="MSShapeGroup"></path>
            </g>
        </g>
    </g>
</svg>