<?xml version="1.0" encoding="utf-8"?>
<!-- Generator: Adobe Illustrator 18.0.0, SVG Export Plug-In . SVG Version: 6.00 Build 0)  -->
<!DOCTYPE svg PUBLIC "-//W3C//DTD SVG 1.1//EN" "http://www.w3.org/Graphics/SVG/1.1/DTD/svg11.dtd">
<svg version="1.1" id="Layer_1" xmlns:sketch="http://www.bohemiancoding.com/sketch/ns"
	 xmlns="http://www.w3.org/2000/svg" xmlns:xlink="http://www.w3.org/1999/xlink" x="0px" y="0px" width="32px" height="32px"
	 viewBox="-95 83 32 32" enable-background="new -95 83 32 32" xml:space="preserve">
<title>Twitter</title>
<desc>Created with Sketch.</desc>
<g id="Page-1" sketch:type="MSPage">
	<g id="CyberBet_landing-2" transform="translate(-1209.000000, -3364.000000)" sketch:type="MSArtboardGroup">
		
			<path id="Twitter" sketch:type="MSShapeGroup" fill="none" stroke="#FFFFFF" stroke-width="2" stroke-linecap="round" stroke-linejoin="round" d="
			M1123,3471c-3.1,1.4-5.6,0.5-6,0.5c2.4,1.6,5.2,2.5,8.2,2.5c9.8,0,15.2-8.5,15.2-15.8c0-0.2,0-0.5,0-0.7c1-0.8,1.9-1.8,2.7-2.9
			c-1,0.4-2,0.7-3.1,0.9c1.1-0.7,1.9-1.8,2.3-3.1c-1,0.6-2.2,1.1-3.4,1.4c-1-1.1-2.4-1.8-3.9-1.8c-2.9,0-5.3,2.5-5.3,5.6
			c0,0.4,0,0.9,0.1,1.3c-4.4-0.2-8.4-2.4-11-5.8c-0.5,0.8-0.7,1.8-0.7,2.8c0,1.9,0.9,3.6,2.4,4.6c-0.9,0-1.7-0.3-2.4-0.7l0,0.1
			c0,2.7,1.8,4.9,4.3,5.4c-0.4,0.1-0.9,0.2-1.4,0.2c-0.3,0-0.7,0-1-0.1c0.4,1.3,1.3,2.4,2.3,3c0.8,0.5,1.7,0.8,2.7,0.8"/>
	</g>
</g>
</svg>
